<svg
  width="165"
  height="22"
  viewBox="0 0 165 22"
  fill="none"
  xmlns="http://www.w3.org/2000/svg"
>
  <path
    d="M27.4742 12.069L29.0008 9.04041H24.8894V5.5676H21.3976V16.3318C21.3976 18.1111 21.6751 19.2443 22.3269 20.1176C23.2166 21.3214 24.7135 21.9575 26.6589 21.9575C27.363 21.9648 28.0651 21.88 28.748 21.7051L28.8298 21.6748L28.2896 18.6462L28.1855 18.6714C27.75 18.7492 27.3091 18.7905 26.8671 18.7951C26.1385 18.7951 25.6032 18.6007 25.2735 18.2171C25.0084 17.8966 24.8944 17.4473 24.8944 16.7028V12.069H27.4742Z"
    fill="white"
  />
  <path
    d="M38.6621 8.86375C38.3346 8.80713 38.003 8.77842 37.6708 8.77794C36.2929 8.77794 34.9943 9.2827 34.2012 10.1231V9.03537H30.8333V21.7051H34.3276V13.7903C34.7192 13.0887 35.7972 12.069 37.2098 12.069C37.5991 12.0598 37.9879 12.1005 38.3672 12.1902L38.4861 12.2306L38.8925 8.89656L38.6621 8.86375Z"
    fill="white"
  />
  <path
    d="M62.4697 17.0713C62.1599 17.556 61.7381 17.9558 61.2412 18.2356C60.7443 18.5155 60.1875 18.6669 59.6197 18.6765C57.714 18.6765 56.3311 17.2934 56.3311 15.3955C56.3238 14.9612 56.402 14.5297 56.5609 14.1266C56.7199 13.7235 56.9564 13.3569 57.2567 13.0483C57.5569 12.7397 57.9147 12.4955 58.3091 12.3299C58.7034 12.1643 59.1263 12.0808 59.5528 12.0842C60.0912 12.0889 60.6209 12.2224 61.0992 12.4741C61.5775 12.7257 61.9909 13.0885 62.3062 13.5329L62.3731 13.6212L64.8513 11.4028L64.7918 11.3245C64.1619 10.5282 63.3631 9.88752 62.4553 9.45043C61.5476 9.01333 60.5544 8.7912 59.5504 8.8007C55.7909 8.8007 52.8442 11.7006 52.8442 15.4031C52.8442 19.1535 55.7165 21.9802 59.5355 21.9802C61.922 21.9802 63.7708 21.0515 65.1834 19.1384L65.2429 19.0551L62.5465 17.0007L62.4697 17.0713Z"
    fill="white"
  />
  <path
    d="M71.3075 8.77794C67.8379 8.77794 65.2358 11.6173 65.2358 15.3803C65.2358 19.2519 67.9197 21.9575 71.7634 21.9575C73.7584 21.9575 75.7286 21.0867 76.8761 19.686L76.938 19.6128L74.9232 17.5685L74.8513 17.6467C74.5539 17.9774 73.4536 19.0525 71.8403 19.0525C70.1576 19.0525 68.8664 17.9294 68.6409 16.3066H77.1115L77.1264 16.2208C77.1805 15.9007 77.2062 15.5763 77.2032 15.2516C77.2032 11.6223 74.6134 8.77794 71.3075 8.77794ZM71.3075 11.6829C71.8594 11.6841 72.3935 11.8826 72.8165 12.2437C73.2395 12.6049 73.5246 13.1058 73.6221 13.6591H68.797C68.9387 13.0915 69.2628 12.5885 69.7178 12.2304C70.1728 11.8722 70.7324 11.6795 71.3075 11.6829Z"
    fill="white"
  />
  <path
    d="M86.8422 8.75268C86.8422 7.62704 87.0057 7.18537 87.2734 6.84213C87.6476 6.39036 88.2424 6.16069 89.0404 6.16069C89.3646 6.16337 89.6873 6.20488 90.0019 6.28436L90.1085 6.31464L90.6512 3.25574L90.5595 3.23302C89.9119 3.06529 89.2451 2.98635 88.577 2.99831C87.1385 2.9615 85.7426 3.49752 84.6861 4.49242C83.7543 5.40858 83.338 6.68312 83.338 8.62396V21.7051H86.8323V12.069H92.7107V21.7051H96.2025V9.03535H86.8422V8.75268Z"
    fill="white"
  />
  <path
    d="M94.455 2.48349C94.0233 2.49491 93.6046 2.63569 93.251 2.88824C92.8975 3.14078 92.625 3.49388 92.4675 3.90335C92.31 4.31282 92.2746 4.76049 92.3656 5.19036C92.4567 5.62024 92.6702 6.01323 92.9794 6.32018C93.2886 6.62712 93.6799 6.8344 94.1042 6.91608C94.5285 6.99776 94.967 6.95022 95.3649 6.7794C95.7628 6.60858 96.1024 6.32207 96.3413 5.9557C96.5801 5.58933 96.7076 5.15938 96.7077 4.71962C96.7068 4.42131 96.6475 4.12619 96.5333 3.85151C96.419 3.57683 96.2521 3.3281 96.0424 3.11989C95.8326 2.91167 95.5842 2.74815 95.3116 2.63888C95.0391 2.5296 94.7479 2.47678 94.455 2.48349Z"
    fill="white"
  />
  <path
    d="M105.253 8.77792C104.038 8.769 102.854 9.17408 101.89 9.92879V9.03535H98.5224V21.7051H102.017V13.5404C102.362 13.0956 102.8 12.7333 103.298 12.4791C103.796 12.2249 104.342 12.0849 104.899 12.069C105.554 12.0415 106.193 12.2792 106.676 12.7303C107.171 13.235 107.38 13.9089 107.38 15.0017V21.7051H110.872V15.2516C110.872 13.2603 110.473 11.8923 109.583 10.8197C109.052 10.1768 108.39 9.66061 107.641 9.30776C106.893 8.9549 106.078 8.77401 105.253 8.77792Z"
    fill="white"
  />
  <path
    d="M133.969 8.77794C132.753 8.76845 131.568 9.17356 130.604 9.92881V9.03537H127.239V21.7051H130.73V13.5404C131.076 13.0953 131.514 12.7328 132.012 12.4786C132.511 12.2244 133.058 12.0846 133.615 12.069C134.269 12.0422 134.907 12.2799 135.389 12.7303C135.885 13.2351 136.093 13.9089 136.093 15.0017V21.7051H139.585V15.2516C139.585 13.2603 139.189 11.8924 138.296 10.8197C137.766 10.1769 137.104 9.6607 136.356 9.30783C135.608 8.95496 134.794 8.77405 133.969 8.77794Z"
    fill="white"
  />
  <path
    d="M150.275 17.0713C149.965 17.556 149.544 17.9558 149.047 18.2356C148.55 18.5155 147.993 18.6669 147.425 18.6765C145.52 18.6765 144.137 17.2934 144.137 15.3955C144.129 14.9612 144.208 14.5297 144.366 14.1266C144.525 13.7235 144.762 13.3569 145.062 13.0483C145.362 12.7397 145.72 12.4955 146.115 12.3299C146.509 12.1643 146.932 12.0808 147.358 12.0842C147.897 12.0887 148.427 12.2221 148.905 12.4738C149.383 12.7255 149.797 13.0883 150.112 13.5329L150.179 13.6212L152.657 11.4028L152.597 11.3245C151.967 10.5282 151.169 9.88752 150.261 9.45043C149.353 9.01333 148.36 8.7912 147.356 8.8007C143.596 8.8007 140.652 11.7006 140.652 15.4031C140.652 19.1535 143.522 21.9802 147.344 21.9802C149.733 21.9802 151.579 21.0515 152.991 19.1384L153.053 19.0551L150.355 17.0007L150.275 17.0713Z"
    fill="white"
  />
  <path
    d="M159.104 8.77794C155.635 8.77794 153.03 11.6173 153.03 15.3803C153.03 19.2519 155.716 21.9575 159.558 21.9575C161.555 21.9575 163.523 21.0867 164.67 19.686L164.732 19.6128L162.717 17.5685L162.646 17.6467C162.348 17.9774 161.248 19.0525 159.634 19.0525C157.952 19.0525 156.661 17.9294 156.435 16.3066H164.906L164.921 16.2208C164.976 15.9008 165.002 15.5764 165 15.2516C165.01 11.6223 162.42 8.77794 159.104 8.77794ZM156.604 13.6591C156.744 13.0927 157.067 12.5905 157.52 12.2324C157.973 11.8743 158.531 11.6809 159.104 11.6829C159.656 11.6847 160.189 11.8834 160.612 12.2445C161.034 12.6056 161.319 13.1062 161.416 13.6591H156.604Z"
    fill="white"
  />
  <path
    d="M48.1625 9.92881C47.1538 9.16582 45.927 8.76146 44.6706 8.77793C41.2383 8.77793 38.5469 11.6778 38.5469 15.3803C38.5396 17.0064 39.108 18.5807 40.1479 19.8147C40.7387 20.4914 41.4641 21.0323 42.2759 21.4017C43.0877 21.7712 43.9674 21.9606 44.8565 21.9575C45.5686 21.9611 46.2744 21.8213 46.9333 21.5461L46.9952 21.5208V19.5598L48.1972 20.6754L49.2926 21.7051H51.523V9.03537H48.1625V9.92881ZM45.1043 12.069C45.6719 12.066 46.2324 12.1973 46.7417 12.4527C47.2509 12.708 47.6949 13.0804 48.0386 13.5404V17.1975C47.7119 17.6587 47.2817 18.0336 46.7837 18.2909C46.2858 18.5482 45.7346 18.6804 45.1762 18.6765C43.3894 18.6765 42.0412 17.2631 42.0412 15.3955C42.0412 13.23 43.6174 12.069 45.1043 12.069Z"
    fill="white"
  />
  <path
    d="M121.749 9.92881C120.741 9.16582 119.514 8.76146 118.258 8.77793C114.825 8.77793 112.134 11.6778 112.134 15.3803C112.124 17.0055 112.69 18.5797 113.727 19.8147C114.318 20.4914 115.044 21.0323 115.855 21.4017C116.667 21.7712 117.547 21.9606 118.436 21.9575C119.148 21.9611 119.854 21.8213 120.513 21.5461L120.575 21.5208V19.5598C120.756 19.7239 121.11 20.0646 121.777 20.6754L122.879 21.7051H125.11V9.03537H121.749V9.92881ZM118.689 12.069C119.256 12.066 119.817 12.1973 120.326 12.4527C120.835 12.708 121.279 13.0804 121.623 13.5404V17.1975C121.297 17.6584 120.867 18.0331 120.369 18.2903C119.872 18.5476 119.321 18.68 118.763 18.6765C116.976 18.6765 115.628 17.2631 115.628 15.3955C115.628 13.23 117.204 12.069 118.689 12.069Z"
    fill="white"
  />
  <path
    fill-rule="evenodd"
    clip-rule="evenodd"
    d="M9.34217 8.73756L11.751 11.1857L14.1276 8.77289L11.7188 6.32476L9.34217 8.73756ZM11.8154 0L9.41899 2.44813L14.8959 8.01574L17.3047 5.56761L11.8154 0Z"
    fill="#00F2B1"
  />
  <path
    fill-rule="evenodd"
    clip-rule="evenodd"
    d="M7.94771 2.44813L5.53886 0L3.15975 2.4128L5.5686 4.86093L7.94771 2.44813ZM0 5.62061L5.47691 11.1857L7.88575 8.73756L2.40885 3.1851L0 5.62061Z"
    fill="#48E0FF"
  />
</svg>
